<svg height="32" viewBox="0 0 32 32" width="32" xmlns="http://www.w3.org/2000/svg"><path d="m13.5025 5.4136a15.0755 15.0755 0 0 0 11.5935 18.1946 11.1134 11.1134 0 0 1 -7.9749 3.3893c-.1385 0-.2782.0051-.4178 0a11.0944 11.0944 0 0 1 -3.2008-21.5839m1.4775-2.4136a1.0024 1.0024 0 0 0 -.1746.0156 13.0959 13.0959 0 0 0 1.8246 25.9817c.1641.006.3282 0 .4909 0a13.0724 13.0724 0 0 0 10.702-5.5556 1.0094 1.0094 0 0 0 -.7833-1.5644 13.08 13.08 0 0 1 -11.1504-17.4973 1.0149 1.0149 0 0 0 -.9092-1.38z"/><path d="m0 0h32v32h-32z" fill="none"/></svg>